REM DIRINDEX 1\2,1\3,1\4,1\5
REM DIRNAME folder01,folder02,folder03,folder04,folder05
TITLE ""
FILE "155.mp3" MP3
  TRACK 01 AUDIO
    TITLE "0:"
    INDEX 01 00:00:00
  TRACK 02 AUDIO
    TITLE "2:cjc046_4390"
    INDEX 01 00:00:13
  TRACK 03 AUDIO
    TITLE "0:"
    INDEX 01 00:01:30
  TRACK 04 AUDIO
    TITLE "3:cjc046_4391"
    INDEX 01 00:01:52
  TRACK 05 AUDIO
    TITLE "0:"
    INDEX 01 00:03:00
  TRACK 06 AUDIO
    TITLE "4:cjc046_4392"
    INDEX 01 00:03:19
  TRACK 07 AUDIO
    TITLE "0:"
    INDEX 01 00:04:38
  TRACK 08 AUDIO
    TITLE "2:cjc046_4393"
    INDEX 01 00:05:48
  TRACK 09 AUDIO
    TITLE "0:"
    INDEX 01 00:06:51
  TRACK 10 AUDIO
    TITLE "3:cjc046_4394"
    INDEX 01 00:06:73
  TRACK 11 AUDIO
    TITLE "0:"
    INDEX 01 00:08:07
  TRACK 12 AUDIO
    TITLE "4:cjc046_4395"
    INDEX 01 00:08:23
  TRACK 13 AUDIO
    TITLE "0:"
    INDEX 01 00:09:26
  TRACK 14 AUDIO
    TITLE "2:cjc046_4396"
    INDEX 01 00:10:37
  TRACK 15 AUDIO
    TITLE "0:"
    INDEX 01 00:11:52
  TRACK 16 AUDIO
    TITLE "3:cjc046_4397"
    INDEX 01 00:11:66
  TRACK 17 AUDIO
    TITLE "0:"
    INDEX 01 00:13:14
  TRACK 18 AUDIO
    TITLE "4:cjc046_4398"
    INDEX 01 00:13:32
  TRACK 19 AUDIO
    TITLE "0:"
    INDEX 01 00:14:47
  TRACK 20 AUDIO
    TITLE "2:cjc046_4399"
    INDEX 01 00:15:56
  TRACK 21 AUDIO
    TITLE "0:"
    INDEX 01 00:17:08
  TRACK 22 AUDIO
    TITLE "3:cjc046_4400"
    INDEX 01 00:17:23
  TRACK 23 AUDIO
    TITLE "0:"
    INDEX 01 00:18:58
  TRACK 24 AUDIO
    TITLE "4:cjc046_4401"
    INDEX 01 00:18:70
  TRACK 25 AUDIO
    TITLE "0:"
    INDEX 01 00:20:24
  TRACK 26 AUDIO
    TITLE "2:cjc046_4402"
    INDEX 01 00:21:31
  TRACK 27 AUDIO
    TITLE "0:"
    INDEX 01 00:22:44
  TRACK 28 AUDIO
    TITLE "3:cjc046_4403"
    INDEX 01 00:22:64
  TRACK 29 AUDIO
    TITLE "0:"
    INDEX 01 00:23:69
  TRACK 30 AUDIO
    TITLE "4:cjc046_4404"
    INDEX 01 00:24:14
  TRACK 31 AUDIO
    TITLE "0:"
    INDEX 01 00:25:27
  TRACK 32 AUDIO
    TITLE "2:cjc046_4405"
    INDEX 01 00:26:34
  TRACK 33 AUDIO
    TITLE "0:"
    INDEX 01 00:27:41
  TRACK 34 AUDIO
    TITLE "3:cjc046_4406"
    INDEX 01 00:27:63
  TRACK 35 AUDIO
    TITLE "0:"
    INDEX 01 00:29:05
  TRACK 36 AUDIO
    TITLE "4:cjc046_4407"
    INDEX 01 00:29:25
  TRACK 37 AUDIO
    TITLE "0:"
    INDEX 01 00:30:32
  TRACK 38 AUDIO
    TITLE "2:cjc046_4408"
    INDEX 01 00:31:39
  TRACK 39 AUDIO
    TITLE "0:"
    INDEX 01 00:32:48
  TRACK 40 AUDIO
    TITLE "3:cjc046_4409"
    INDEX 01 00:32:68
  TRACK 41 AUDIO
    TITLE "0:"
    INDEX 01 00:34:00
  TRACK 42 AUDIO
    TITLE "4:cjc046_4410"
    INDEX 01 00:34:10
  TRACK 43 AUDIO
    TITLE "0:"
    INDEX 01 00:35:19
  TRACK 44 AUDIO
    TITLE "2:cjc046_4411"
    INDEX 01 00:36:29
  TRACK 45 AUDIO
    TITLE "0:"
    INDEX 01 00:37:40
  TRACK 46 AUDIO
    TITLE "3:cjc046_4412"
    INDEX 01 00:37:59
  TRACK 47 AUDIO
    TITLE "0:"
    INDEX 01 00:39:03
  TRACK 48 AUDIO
    TITLE "4:cjc046_4413"
    INDEX 01 00:39:15
  TRACK 49 AUDIO
    TITLE "0:"
    INDEX 01 00:40:28
  TRACK 50 AUDIO
    TITLE "2:cjc046_4414"
    INDEX 01 00:41:36
  TRACK 51 AUDIO
    TITLE "0:"
    INDEX 01 00:42:57
  TRACK 52 AUDIO
    TITLE "3:cjc046_4415"
    INDEX 01 00:42:70
  TRACK 53 AUDIO
    TITLE "0:"
    INDEX 01 00:44:18
  TRACK 54 AUDIO
    TITLE "4:cjc046_4416"
    INDEX 01 00:44:36
  TRACK 55 AUDIO
    TITLE "0:"
    INDEX 01 00:45:57
  TRACK 56 AUDIO
    TITLE "2:cjc046_4417"
    INDEX 01 00:46:66
  TRACK 57 AUDIO
    TITLE "0:"
    INDEX 01 00:47:70
  TRACK 58 AUDIO
    TITLE "3:cjc046_4418"
    INDEX 01 00:48:14
  TRACK 59 AUDIO
    TITLE "0:"
    INDEX 01 00:49:35
  TRACK 60 AUDIO
    TITLE "4:cjc046_4419"
    INDEX 01 00:49:53
  TRACK 61 AUDIO
    TITLE "0:"
    INDEX 01 00:50:58
  TRACK 62 AUDIO
    TITLE "2:cjc046_4420"
    INDEX 01 00:51:65
  TRACK 63 AUDIO
    TITLE "0:"
    INDEX 01 00:53:02
  TRACK 64 AUDIO
    TITLE "3:cjc046_4421"
    INDEX 01 00:53:17
  TRACK 65 AUDIO
    TITLE "0:"
    INDEX 01 00:54:25
  TRACK 66 AUDIO
    TITLE "4:cjc046_4422"
    INDEX 01 00:54:40
  TRACK 67 AUDIO
    TITLE "0:"
    INDEX 01 00:55:51
  TRACK 68 AUDIO
    TITLE "2:cjc046_4423"
    INDEX 01 00:56:59
  TRACK 69 AUDIO
    TITLE "0:"
    INDEX 01 00:57:70
  TRACK 70 AUDIO
    TITLE "3:cjc046_4424"
    INDEX 01 00:58:15
  TRACK 71 AUDIO
    TITLE "0:"
    INDEX 01 00:59:06
  TRACK 72 AUDIO
    TITLE "4:cjc046_4425"
    INDEX 01 00:59:24
  TRACK 73 AUDIO
    TITLE "0:"
    INDEX 01 01:00:33
  TRACK 74 AUDIO
    TITLE "2:cjc046_4426"
    INDEX 01 01:01:42
  TRACK 75 AUDIO
    TITLE "0:"
    INDEX 01 01:02:55
  TRACK 76 AUDIO
    TITLE "3:cjc046_4427"
    INDEX 01 01:02:71
  TRACK 77 AUDIO
    TITLE "0:"
    INDEX 01 01:04:19
  TRACK 78 AUDIO
    TITLE "4:cjc046_4428"
    INDEX 01 01:04:31
  TRACK 79 AUDIO
    TITLE "0:"
    INDEX 01 01:05:44
  TRACK 80 AUDIO
    TITLE "2:cjc046_4429"
    INDEX 01 01:06:55
  TRACK 81 AUDIO
    TITLE "0:"
    INDEX 01 01:07:72
  TRACK 82 AUDIO
    TITLE "3:cjc046_4430"
    INDEX 01 01:08:17
  TRACK 83 AUDIO
    TITLE "0:"
    INDEX 01 01:09:32
  TRACK 84 AUDIO
    TITLE "4:cjc046_4431"
    INDEX 01 01:09:50
  TRACK 85 AUDIO
    TITLE "0:"
    INDEX 01 01:10:67
  TRACK 86 AUDIO
    TITLE "2:cjc046_4432"
    INDEX 01 01:12:01
  TRACK 87 AUDIO
    TITLE "0:"
    INDEX 01 01:13:44
  TRACK 88 AUDIO
    TITLE "3:cjc046_4433"
    INDEX 01 01:13:61
  TRACK 89 AUDIO
    TITLE "0:"
    INDEX 01 01:15:60
  TRACK 90 AUDIO
    TITLE "4:cjc046_4434"
    INDEX 01 01:16:03
  TRACK 91 AUDIO
    TITLE "0:"
    INDEX 01 01:17:45
  TRACK 92 AUDIO
    TITLE "2:cjc046_4435"
    INDEX 01 01:18:54
  TRACK 93 AUDIO
    TITLE "0:"
    INDEX 01 01:19:70
  TRACK 94 AUDIO
    TITLE "3:cjc046_4436"
    INDEX 01 01:20:18
  TRACK 95 AUDIO
    TITLE "0:"
    INDEX 01 01:21:39
  TRACK 96 AUDIO
    TITLE "4:cjc046_4437"
    INDEX 01 01:21:59
  TRACK 97 AUDIO
    TITLE "0:"
    INDEX 01 01:23:03
